# File created by Blade
# Date/Time:  Tue Apr 07 20:49:23 2015
# Frame Rate: 120.000 fps
#------------------------------------------------------
:FULLY-SPECIFIED
:DEGREES
700
root 0.569474 33.863756 -6.670000 -3.588319 51.836857 -109.222241
Spine -46.392303 -10.627358 34.330346
Head -18.528627 33.008267 29.661404
LeftShoulder -26.869859 37.845330 28.640162
LeftArm 78.837254 -69.448537 -75.539360
LeftForeArm 17.933769 -0.000000 15.175810
LeftHand 7.025040 -0.000000 16.290906
LeftHandThumb1 -26.253704 0.000000 33.147579
RightShoulder -24.471247 -5.407531 -27.903042
RightArm -21.833956 36.045985 21.590665
RightForeArm 60.233203 -0.000000 -2.765868
RightHand 3.021605 -0.000000 14.429455
RightHandThumb1 -24.326973 -0.000000 -32.862282
LeftUpLeg -93.732617 39.694315 15.758865
LeftLeg -14.983260 -0.000000 0.000000
LeftFoot 8.031445 14.343103 -9.233284
LeftToeBase -10.402754 -0.000000 0.000000
RightUpLeg 33.458742 20.502211 -16.688310
RightLeg 58.945432 -0.000000 -0.000000
RightFoot 55.336048 10.935166 0.302852
RightToeBase 7.219229 -0.000000 -0.000000
701
root 0.561134 33.865312 -6.680633 -3.449199 51.929761 -109.127619
Spine -46.412828 -10.689445 34.307183
Head -18.546180 33.073327 29.609724
LeftShoulder -26.893556 37.900458 28.590825
LeftArm 78.620562 -69.396415 -75.367724
LeftForeArm 17.746363 -0.000000 14.903722
LeftHand 7.038825 -0.000000 16.260414
LeftHandThumb1 -26.253704 0.000000 33.147579
RightShoulder -24.551871 -5.425996 -27.822171
RightArm -21.935247 36.168535 21.497796
RightForeArm 60.366160 -0.000000 -2.699630
RightHand 3.025735 -0.000000 14.516495
RightHandThumb1 -24.326973 -0.000000 -32.862282
LeftUpLeg -93.913415 39.684988 15.546516
LeftLeg -14.927742 -0.000000 0.000000
LeftFoot 7.753533 14.035742 -10.250010
LeftToeBase -9.841368 -0.000000 0.000000
RightUpLeg 33.472838 20.316139 -16.733820
RightLeg 58.961241 -0.000000 -0.000000
RightFoot 55.373058 10.851805 0.464738
RightToeBase 7.024491 -0.000000 -0.000000
702
root 0.555503 33.866694 -6.691556 -3.284810 51.982704 -108.999818
Spine -46.429984 -10.723163 34.270875
Head -18.512803 33.149224 29.591266
LeftShoulder -26.860900 37.924169 28.598473
LeftArm 78.312171 -69.352923 -75.148935
LeftForeArm 17.578284 0.000000 14.624187
LeftHand 7.022923 -0.000000 16.330563
LeftHandThumb1 -26.253704 0.000000 33.147579
RightShoulder -24.599701 -5.402950 -27.753194
RightArm -22.078611 36.208678 21.379030
RightForeArm 60.383139 -0.000000 -2.588839
RightHand 3.075341 0.000000 14.443805
RightHandThumb1 -24.326973 -0.000000 -32.862282
LeftUpLeg -94.027727 39.706741 15.362577
LeftLeg -14.921697 -0.000000 0.000000
LeftFoot 7.496167 13.808036 -11.205091
LeftToeBase -9.255875 -0.000000 0.000000
RightUpLeg 33.465803 20.179758 -16.788864
RightLeg 58.983936 -0.000000 -0.000000
RightFoot 55.381823 10.821582 0.514425
RightToeBase 7.346995 -0.000000 -0.000000
703
root 0.550046 33.868996 -6.698902 -3.191324 51.983480 -108.943366
Spine -46.417287 -10.733558 34.281105
Head -18.433500 33.242195 29.630661
LeftShoulder -26.851687 37.966299 28.608198
LeftArm 78.144351 -69.287971 -75.047342
LeftForeArm 17.322498 -0.000000 14.312163
LeftHand 6.990828 -0.000000 16.233137
LeftHandThumb1 -26.253704 0.000000 33.147579
RightShoulder -24.640583 -5.410871 -27.698700
RightArm -22.143433 36.209394 21.332690
RightForeArm 60.465187 -0.000000 -2.520920
RightHand 3.012222 -0.000000 14.529317
RightHandThumb1 -24.326973 -0.000000 -32.862282
LeftUpLeg -94.091075 39.781163 15.280551
LeftLeg -14.926088 -0.000000 0.000000
LeftFoot 7.379447 13.634664 -11.989633
LeftToeBase -8.962243 -0.000000 0.000000
RightUpLeg 33.462012 20.098231 -16.781431
RightLeg 59.007724 -0.000000 -0.000000
RightFoot 55.391564 10.881993 0.463430
RightToeBase 6.935120 -0.000000 -0.000000
704
root 0.546336 33.871894 -6.705068 -3.094429 51.956870 -108.889598
Spine -46.415100 -10.730998 34.301306
Head -18.282796 33.322661 29.723728
LeftShoulder -26.790124 37.982010 28.669349
LeftArm 77.940772 -69.250697 -74.924836
LeftForeArm 17.175842 0.000000 13.955539
LeftHand 7.042608 -0.000000 16.191084
LeftHandThumb1 -26.253704 0.000000 33.147579
RightShoulder -24.647362 -5.406956 -27.655478
RightArm -22.217684 36.193441 21.275750
RightForeArm 60.472675 -0.000000 -2.448397
RightHand 3.039668 -0.000000 14.502460
RightHandThumb1 -24.326973 -0.000000 -32.862282
LeftUpLeg -94.124711 39.870812 15.226338
LeftLeg -14.949045 -0.000000 0.000000
LeftFoot 7.296606 13.500468 -12.665632
LeftToeBase -8.815860 -0.000000 0.000000
RightUpLeg 33.456672 20.071619 -16.735386
RightLeg 59.013683 -0.000000 -0.000000
RightFoot 55.435453 10.837669 0.550362
RightToeBase 6.987234 -0.000000 -0.000000
705
root 0.543467 33.875394 -6.713024 -3.005268 51.909131 -108.857681
Spine -46.410014 -10.704492 34.351974
Head -18.135080 33.415237 29.796937
LeftShoulder -26.756037 38.024623 28.704737
LeftArm 77.879445 -69.211448 -74.933032
LeftForeArm 17.024865 -0.000000 13.584245
LeftHand 7.115378 -0.000000 15.943069
LeftHandThumb1 -26.253704 0.000000 33.147579
RightShoulder -24.663426 -5.410339 -27.638629
RightArm -22.251124 36.248895 21.230139
RightForeArm 60.421030 0.000000 -2.396551
RightHand 3.003611 -0.000000 14.462826
RightHandThumb1 -24.326973 -0.000000 -32.862282
LeftUpLeg -94.105558 39.968206 15.265842
LeftLeg -14.984662 -0.000000 0.000000
LeftFoot 7.290015 13.519604 -12.939198
LeftToeBase -8.958939 -0.000000 0.000000
RightUpLeg 33.435146 20.076775 -16.676004
RightLeg 59.013375 -0.000000 -0.000000
RightFoot 55.497645 10.831087 0.597330
RightToeBase 6.888685 -0.000000 -0.000000
706
root 0.542430 33.878167 -6.720983 -2.864050 51.887321 -108.744155
Spine -46.421399 -10.715778 34.353509
Head -17.946913 33.614607 29.888749
LeftShoulder -26.719534 38.032239 28.742434
LeftArm 77.605689 -69.165235 -74.676810
LeftForeArm 16.819640 -0.000000 13.181192
LeftHand 7.190901 -0.000000 15.799885
LeftHandThumb1 -26.253704 0.000000 33.147579
RightShoulder -24.675496 -5.411574 -27.616661
RightArm -22.220023 36.235138 21.226974
RightForeArm 60.451445 -0.000000 -2.399772
RightHand 2.986183 -0.000000 14.475524
RightHandThumb1 -24.326973 -0.000000 -32.862282
LeftUpLeg -94.077298 40.012325 15.242604
LeftLeg -15.036119 -0.000000 0.000000
LeftFoot 7.299207 13.543564 -13.011128
LeftToeBase -8.931949 -0.000000 0.000000
RightUpLeg 33.451231 20.073375 -16.656814
RightLeg 58.998748 -0.000000 -0.000000
RightFoot 55.452827 10.884331 0.604044
RightToeBase 6.892893 -0.000000 -0.000000
707
root 0.539922 33.880911 -6.726791 -2.745754 51.828409 -108.657438
Spine -46.426884 -10.697978 34.352395
Head -17.707658 33.706865 30.047687
LeftShoulder -26.677674 38.073722 28.803358
LeftArm 77.589921 -69.113432 -74.653013
LeftForeArm 16.713286 -0.000000 12.757445
LeftHand 7.169255 -0.000000 15.658445
LeftHandThumb1 -26.253704 0.000000 33.147579
RightShoulder -24.679165 -5.454463 -27.598334
RightArm -22.160261 36.254155 21.232654
RightForeArm 60.443160 -0.000000 -2.436718
RightHand 3.015624 -0.000000 14.350268
RightHandThumb1 -24.326973 -0.000000 -32.862282
LeftUpLeg -94.008791 40.089177 15.289524
LeftLeg -15.099969 -0.000000 0.000000
LeftFoot 7.319919 13.647988 -12.963054
LeftToeBase -8.855093 -0.000000 0.000000
RightUpLeg 33.464504 20.109739 -16.625660
RightLeg 58.961467 -0.000000 -0.000000
RightFoot 55.471762 10.886995 0.608312
RightToeBase 7.077249 -0.000000 -0.000000
708
root 0.536908 33.882734 -6.733803 -2.604347 51.806316 -108.531613
Spine -46.462771 -10.725589 34.338468
Head -17.416843 33.777242 30.238920
LeftShoulder -26.643979 38.118064 28.843744
LeftArm 77.498273 -69.067912 -74.511577
LeftForeArm 16.527099 -0.000000 12.346706
LeftHand 7.191055 -0.000000 15.474203
LeftHandThumb1 -26.253704 0.000000 33.147579
RightShoulder -24.645437 -5.502894 -27.596294
RightArm -22.102193 36.268894 21.252420
RightForeArm 60.431240 0.000000 -2.485013
RightHand 2.946750 -0.000000 14.396832
RightHandThumb1 -24.326973 -0.000000 -32.862282
LeftUpLeg -94.071892 40.096094 15.156377
LeftLeg -15.097515 -0.000000 0.000000
LeftFoot 7.310341 13.645171 -12.869876
LeftToeBase -8.871642 -0.000000 0.000000
RightUpLeg 33.514229 20.120486 -16.614078
RightLeg 58.901739 -0.000000 -0.000000
RightFoot 55.493318 10.897873 0.607152
RightToeBase 6.949673 -0.000000 -0.000000
709
root 0.534503 33.884821 -6.741060 -2.481706 51.757528 -108.430699
Spine -46.482814 -10.729985 34.354736
Head -17.150671 33.858138 30.371389
LeftShoulder -26.627342 38.144418 28.877588
LeftArm 77.476432 -69.013110 -74.443433
LeftForeArm 16.447269 0.000000 11.936521
LeftHand 7.198158 -0.000000 15.363676
LeftHandThumb1 -26.253704 0.000000 33.147579
RightShoulder -24.625243 -5.540574 -27.613967
RightArm -21.973691 36.221247 21.326888
RightForeArm 60.466260 -0.000000 -2.558982
RightHand 2.930985 -0.000000 14.393713
RightHandThumb1 -24.326973 -0.000000 -32.862282
LeftUpLeg -94.162700 40.123940 15.006909
LeftLeg -15.073173 -0.000000 0.000000
LeftFoot 7.287699 13.611079 -12.807010
LeftToeBase -8.900124 -0.000000 0.000000
RightUpLeg 33.554048 20.158351 -16.599700
RightLeg 58.838530 -0.000000 -0.000000
RightFoot 55.463142 10.926884 0.588152
RightToeBase 6.736997 -0.000000 -0.000000
710
root 0.532195 33.888038 -6.747266 -2.354296 51.702056 -108.338665
Spine -46.521730 -10.718373 34.369181
Head -16.855405 33.888444 30.510657
LeftShoulder -26.578113 38.153921 28.934392
LeftArm 77.305620 -68.955721 -74.220547
LeftForeArm 16.266776 -0.000000 11.570524
LeftHand 7.274544 -0.000000 15.264213
LeftHandThumb1 -26.253704 0.000000 33.147579
RightShoulder -24.577853 -5.565920 -27.642398
RightArm -21.864332 36.078287 21.407807
RightForeArm 60.542896 0.000000 -2.657001
RightHand 2.971604 -0.000000 14.346638
RightHandThumb1 -24.326973 -0.000000 -32.862282
LeftUpLeg -94.294315 40.160891 14.821181
LeftLeg -15.036183 -0.000000 0.000000
LeftFoot 7.256277 13.545809 -12.778839
LeftToeBase -8.886204 -0.000000 0.000000
RightUpLeg 33.569545 20.195207 -16.593002
RightLeg 58.797053 -0.000000 -0.000000
RightFoot 55.402760 10.968085 0.509367
RightToeBase 6.730774 -0.000000 -0.000000
711
root 0.530853 33.892784 -6.752768 -2.230782 51.633318 -108.262503
Spine -46.559113 -10.689820 34.393666
Head -16.584373 33.907194 30.612999
LeftShoulder -26.559505 38.171418 28.958839
LeftArm 77.387663 -68.902058 -74.244686
LeftForeArm 16.284747 -0.000000 11.272680
LeftHand 7.161793 -0.000000 15.346341
LeftHandThumb1 -26.253704 0.000000 33.147579
RightShoulder -24.521198 -5.619775 -27.673619
RightArm -21.772293 35.975982 21.496789
RightForeArm 60.611965 -0.000000 -2.739977
RightHand 2.909025 -0.000000 14.390964
RightHandThumb1 -24.326973 -0.000000 -32.862282
LeftUpLeg -94.518731 40.211060 14.540932
LeftLeg -14.956716 -0.000000 0.000000
LeftFoot 7.203684 13.362305 -12.733232
LeftToeBase -8.740213 -0.000000 0.000000
RightUpLeg 33.565387 20.246002 -16.564430
RightLeg 58.777572 -0.000000 -0.000000
RightFoot 55.365957 10.930111 0.465273
RightToeBase 6.888733 -0.000000 -0.000000
